<svg width="1440" height="800" viewBox="0 0 1440 800" xmlns="http://www.w3.org/2000/svg">
  <defs>
    <pattern id="scales-pattern" patternUnits="userSpaceOnUse" width="100" height="100">
      <rect width="100" height="100" fill="none"/>
      <path d="M50,20 C50,20 20,40 20,50 C20,60 50,80 50,80 C50,80 80,60 80,50 C80,40 50,20 50,20 Z" 
            fill="none" stroke="#2563EB" stroke-width="1" opacity="0.08"/>
      <circle cx="50" cy="50" r="3" fill="#2563EB" opacity="0.15"/>
    </pattern>
    
    <pattern id="paragraph-pattern" patternUnits="userSpaceOnUse" width="120" height="120">
      <rect width="120" height="120" fill="none"/>
      <path d="M20,20 L100,20 M20,40 L90,40 M20,60 L95,60 M20,80 L80,80" 
            stroke="#64748B" stroke-width="1" opacity="0.05"/>
    </pattern>
    
    <pattern id="gavel-pattern" patternUnits="userSpaceOnUse" width="150" height="150">
      <rect width="150" height="150" fill="none"/>
      <path d="M50,50 L100,100 M100,50 L50,100" stroke="#1E40AF" stroke-width="2" opacity="0.05"/>
      <rect x="68" y="62" width="14" height="26" transform="rotate(45 75 75)" fill="#1E40AF" opacity="0.05"/>
    </pattern>
    
    <linearGradient id="bg-gradient" x1="0%" y1="0%" x2="100%" y2="100%">
      <stop offset="0%" stop-color="#FFFFFF" />
      <stop offset="100%" stop-color="#F8FAFC" />
    </linearGradient>
  </defs>
  
  <rect width="100%" height="100%" fill="url(#bg-gradient)"/>
  <rect width="100%" height="100%" fill="url(#scales-pattern)"/>
  <rect width="100%" height="100%" fill="url(#paragraph-pattern)"/>
  <rect width="100%" height="100%" fill="url(#gavel-pattern)"/>
  
  <!-- 顶部装饰元素 -->
  <path d="M0,0 L1440,0 L1440,200 C1200,160 960,220 720,180 C480,140 240,160 0,120 Z" 
        fill="#2563EB" opacity="0.03"/>
        
  <!-- 底部装饰元素 -->
  <path d="M0,800 L1440,800 L1440,600 C1200,660 960,620 720,680 C480,740 240,700 0,760 Z" 
        fill="#2563EB" opacity="0.03"/>
</svg> 